<mxfile host="app.diagrams.net" modified="2022-12-16T01:25:46.636Z" agent="5.0 (Windows NT 10.0; Win64; x64) AppleWebKit/537.36 (KHTML, like Gecko) Chrome/108.0.0.0 Safari/537.36" etag="KcoVVNP7sNGa-XugW1WH" version="20.6.0" type="github">
  <diagram id="9jJcs49kHszxmSnNq9vT" name="Page-1">
    <mxGraphModel dx="981" dy="654" grid="1" gridSize="10" guides="1" tooltips="1" connect="1" arrows="1" fold="1" page="1" pageScale="1" pageWidth="850" pageHeight="1100" math="0" shadow="0">
      <root>
        <mxCell id="0" />
        <mxCell id="1" parent="0" />
        <mxCell id="-loRydjfzgZqf3nSCmC6-1" value="Allied Type" style="swimlane;childLayout=stackLayout;horizontal=1;startSize=30;horizontalStack=0;rounded=1;fontSize=14;fontStyle=0;strokeWidth=2;resizeParent=0;resizeLast=1;shadow=0;dashed=0;align=center;" parent="1" vertex="1">
          <mxGeometry x="10" y="30" width="160" height="90" as="geometry" />
        </mxCell>
        <mxCell id="-loRydjfzgZqf3nSCmC6-2" value="Id&#xa;Name" style="align=left;strokeColor=none;fillColor=none;spacingLeft=4;fontSize=12;verticalAlign=top;resizable=0;rotatable=0;part=1;" parent="-loRydjfzgZqf3nSCmC6-1" vertex="1">
          <mxGeometry y="30" width="160" height="60" as="geometry" />
        </mxCell>
        <mxCell id="-loRydjfzgZqf3nSCmC6-3" value="Allied Professional" style="swimlane;childLayout=stackLayout;horizontal=1;startSize=30;horizontalStack=0;rounded=1;fontSize=14;fontStyle=0;strokeWidth=2;resizeParent=0;resizeLast=1;shadow=0;dashed=0;align=center;" parent="1" vertex="1">
          <mxGeometry x="10" y="220" width="160" height="160" as="geometry" />
        </mxCell>
        <mxCell id="-loRydjfzgZqf3nSCmC6-4" value="Id&#xa;First name&#xa;Last name&#xa;Phone&#xa;Email&#xa; " style="align=left;strokeColor=none;fillColor=none;spacingLeft=4;fontSize=12;verticalAlign=top;resizable=0;rotatable=0;part=1;" parent="-loRydjfzgZqf3nSCmC6-3" vertex="1">
          <mxGeometry y="30" width="160" height="130" as="geometry" />
        </mxCell>
        <mxCell id="-loRydjfzgZqf3nSCmC6-5" value="Practice_ Allied Affiliation" style="swimlane;childLayout=stackLayout;horizontal=1;startSize=30;horizontalStack=0;rounded=1;fontSize=14;fontStyle=0;strokeWidth=2;resizeParent=0;resizeLast=1;shadow=0;dashed=0;align=center;" parent="1" vertex="1">
          <mxGeometry x="240" y="220" width="160" height="120" as="geometry" />
        </mxCell>
        <mxCell id="-loRydjfzgZqf3nSCmC6-6" value="Id&#xa;Start date&#xa;End date" style="align=left;strokeColor=none;fillColor=none;spacingLeft=4;fontSize=12;verticalAlign=top;resizable=0;rotatable=0;part=1;" parent="-loRydjfzgZqf3nSCmC6-5" vertex="1">
          <mxGeometry y="30" width="160" height="90" as="geometry" />
        </mxCell>
        <mxCell id="-loRydjfzgZqf3nSCmC6-9" value="Medical Record Type" style="swimlane;childLayout=stackLayout;horizontal=1;startSize=30;horizontalStack=0;rounded=1;fontSize=14;fontStyle=0;strokeWidth=2;resizeParent=0;resizeLast=1;shadow=0;dashed=0;align=center;" parent="1" vertex="1">
          <mxGeometry x="460" y="40" width="160" height="90" as="geometry" />
        </mxCell>
        <mxCell id="-loRydjfzgZqf3nSCmC6-10" value="Id&#xa;Name" style="align=left;strokeColor=none;fillColor=none;spacingLeft=4;fontSize=12;verticalAlign=top;resizable=0;rotatable=0;part=1;" parent="-loRydjfzgZqf3nSCmC6-9" vertex="1">
          <mxGeometry y="30" width="160" height="60" as="geometry" />
        </mxCell>
        <mxCell id="-loRydjfzgZqf3nSCmC6-11" value="IT Company" style="swimlane;childLayout=stackLayout;horizontal=1;startSize=30;horizontalStack=0;rounded=1;fontSize=14;fontStyle=0;strokeWidth=2;resizeParent=0;resizeLast=1;shadow=0;dashed=0;align=center;" parent="1" vertex="1">
          <mxGeometry x="680" y="40" width="160" height="130" as="geometry" />
        </mxCell>
        <mxCell id="-loRydjfzgZqf3nSCmC6-12" value="Id&#xa;Name&#xa;Address&#xa;Phone&#xa;Email&#xa;Contact name" style="align=left;strokeColor=none;fillColor=none;spacingLeft=4;fontSize=12;verticalAlign=top;resizable=0;rotatable=0;part=1;" parent="-loRydjfzgZqf3nSCmC6-11" vertex="1">
          <mxGeometry y="30" width="160" height="90" as="geometry" />
        </mxCell>
        <mxCell id="-loRydjfzgZqf3nSCmC6-27" value="&#xa;&#xa;" style="align=left;strokeColor=none;fillColor=none;spacingLeft=4;fontSize=12;verticalAlign=top;resizable=0;rotatable=0;part=1;" parent="-loRydjfzgZqf3nSCmC6-11" vertex="1">
          <mxGeometry y="120" width="160" height="10" as="geometry" />
        </mxCell>
        <mxCell id="-loRydjfzgZqf3nSCmC6-13" value="Practice" style="swimlane;childLayout=stackLayout;horizontal=1;startSize=30;horizontalStack=0;rounded=1;fontSize=14;fontStyle=0;strokeWidth=2;resizeParent=0;resizeLast=1;shadow=0;dashed=0;align=center;" parent="1" vertex="1">
          <mxGeometry x="470" y="200" width="160" height="130" as="geometry" />
        </mxCell>
        <mxCell id="-loRydjfzgZqf3nSCmC6-14" value="Id&#xa;Name&#xa;Address&#xa;Phone&#xa;Email" style="align=left;strokeColor=none;fillColor=none;spacingLeft=4;fontSize=12;verticalAlign=top;resizable=0;rotatable=0;part=1;" parent="-loRydjfzgZqf3nSCmC6-13" vertex="1">
          <mxGeometry y="30" width="160" height="100" as="geometry" />
        </mxCell>
        <mxCell id="-loRydjfzgZqf3nSCmC6-15" value="Allied Remote Status" style="swimlane;childLayout=stackLayout;horizontal=1;startSize=30;horizontalStack=0;rounded=1;fontSize=14;fontStyle=0;strokeWidth=2;resizeParent=0;resizeLast=1;shadow=0;dashed=0;align=center;" parent="1" vertex="1">
          <mxGeometry x="240" y="410" width="160" height="190" as="geometry" />
        </mxCell>
        <mxCell id="-loRydjfzgZqf3nSCmC6-16" value="Id&#xa;Login&#xa;Status&#xa;Comments&#xa;Date&#xa;Step 1&#xa;Step  2&#xa;Step 3&#xa;Step 4&#xa;Step 5&#xa;" style="align=left;strokeColor=none;fillColor=none;spacingLeft=4;fontSize=12;verticalAlign=top;resizable=0;rotatable=0;part=1;" parent="-loRydjfzgZqf3nSCmC6-15" vertex="1">
          <mxGeometry y="30" width="160" height="160" as="geometry" />
        </mxCell>
        <mxCell id="-loRydjfzgZqf3nSCmC6-17" value="Connection Details" style="swimlane;childLayout=stackLayout;horizontal=1;startSize=30;horizontalStack=0;rounded=1;fontSize=14;fontStyle=0;strokeWidth=2;resizeParent=0;resizeLast=1;shadow=0;dashed=0;align=center;" parent="1" vertex="1">
          <mxGeometry x="680" y="250" width="160" height="130" as="geometry" />
        </mxCell>
        <mxCell id="-loRydjfzgZqf3nSCmC6-18" value="Id&#xa;Server&#xa;String&#xa;Gateway&#xa;Port&#xa;Program" style="align=left;strokeColor=none;fillColor=none;spacingLeft=4;fontSize=12;verticalAlign=top;resizable=0;rotatable=0;part=1;" parent="-loRydjfzgZqf3nSCmC6-17" vertex="1">
          <mxGeometry y="30" width="160" height="100" as="geometry" />
        </mxCell>
        <mxCell id="-loRydjfzgZqf3nSCmC6-19" value="Remote Status Type" style="swimlane;childLayout=stackLayout;horizontal=1;startSize=30;horizontalStack=0;rounded=1;fontSize=14;fontStyle=0;strokeWidth=2;resizeParent=0;resizeLast=1;shadow=0;dashed=0;align=center;" parent="1" vertex="1">
          <mxGeometry x="480" y="400" width="160" height="80" as="geometry" />
        </mxCell>
        <mxCell id="-loRydjfzgZqf3nSCmC6-20" value="Id&#xa;Name" style="align=left;strokeColor=none;fillColor=none;spacingLeft=4;fontSize=12;verticalAlign=top;resizable=0;rotatable=0;part=1;" parent="-loRydjfzgZqf3nSCmC6-19" vertex="1">
          <mxGeometry y="30" width="160" height="50" as="geometry" />
        </mxCell>
        <mxCell id="-loRydjfzgZqf3nSCmC6-21" value="Step 5 Type" style="swimlane;childLayout=stackLayout;horizontal=1;startSize=30;horizontalStack=0;rounded=1;fontSize=14;fontStyle=0;strokeWidth=2;resizeParent=0;resizeLast=1;shadow=0;dashed=0;align=center;" parent="1" vertex="1">
          <mxGeometry x="480" y="520" width="160" height="80" as="geometry" />
        </mxCell>
        <mxCell id="-loRydjfzgZqf3nSCmC6-22" value="Id&#xa;Name" style="align=left;strokeColor=none;fillColor=none;spacingLeft=4;fontSize=12;verticalAlign=top;resizable=0;rotatable=0;part=1;" parent="-loRydjfzgZqf3nSCmC6-21" vertex="1">
          <mxGeometry y="30" width="160" height="50" as="geometry" />
        </mxCell>
        <mxCell id="-loRydjfzgZqf3nSCmC6-23" value="Employment Status Type" style="swimlane;childLayout=stackLayout;horizontal=1;startSize=30;horizontalStack=0;rounded=1;fontSize=14;fontStyle=0;strokeWidth=2;resizeParent=0;resizeLast=1;shadow=0;dashed=0;align=center;" parent="1" vertex="1">
          <mxGeometry x="240" y="65" width="160" height="80" as="geometry" />
        </mxCell>
        <mxCell id="-loRydjfzgZqf3nSCmC6-24" value="Id&#xa;Name" style="align=left;strokeColor=none;fillColor=none;spacingLeft=4;fontSize=12;verticalAlign=top;resizable=0;rotatable=0;part=1;" parent="-loRydjfzgZqf3nSCmC6-23" vertex="1">
          <mxGeometry y="30" width="160" height="50" as="geometry" />
        </mxCell>
        <mxCell id="-loRydjfzgZqf3nSCmC6-33" value="" style="edgeStyle=entityRelationEdgeStyle;fontSize=12;html=1;endArrow=ERzeroToMany;startArrow=ERmandOne;rounded=0;entryX=0.5;entryY=0;entryDx=0;entryDy=0;exitX=0.438;exitY=1;exitDx=0;exitDy=0;exitPerimeter=0;" parent="1" source="-loRydjfzgZqf3nSCmC6-2" target="-loRydjfzgZqf3nSCmC6-3" edge="1">
          <mxGeometry width="100" height="100" relative="1" as="geometry">
            <mxPoint x="160.07999999999993" y="60" as="sourcePoint" />
            <mxPoint x="60.07999999999993" y="160" as="targetPoint" />
          </mxGeometry>
        </mxCell>
        <mxCell id="-loRydjfzgZqf3nSCmC6-34" value="" style="edgeStyle=entityRelationEdgeStyle;fontSize=12;html=1;endArrow=ERzeroToMany;startArrow=ERmandOne;rounded=0;entryX=-0.006;entryY=0.408;entryDx=0;entryDy=0;entryPerimeter=0;exitX=1.013;exitY=0.303;exitDx=0;exitDy=0;exitPerimeter=0;" parent="1" source="-loRydjfzgZqf3nSCmC6-4" target="-loRydjfzgZqf3nSCmC6-6" edge="1">
          <mxGeometry width="100" height="100" relative="1" as="geometry">
            <mxPoint x="140" y="430" as="sourcePoint" />
            <mxPoint x="240" y="330" as="targetPoint" />
          </mxGeometry>
        </mxCell>
        <mxCell id="-loRydjfzgZqf3nSCmC6-35" value="" style="edgeStyle=entityRelationEdgeStyle;fontSize=12;html=1;endArrow=ERzeroToMany;startArrow=ERmandOne;rounded=0;exitX=0;exitY=0.5;exitDx=0;exitDy=0;entryX=1.011;entryY=0.684;entryDx=0;entryDy=0;entryPerimeter=0;" parent="1" source="-loRydjfzgZqf3nSCmC6-14" target="-loRydjfzgZqf3nSCmC6-6" edge="1">
          <mxGeometry width="100" height="100" relative="1" as="geometry">
            <mxPoint x="600" y="160" as="sourcePoint" />
            <mxPoint x="400" y="280" as="targetPoint" />
          </mxGeometry>
        </mxCell>
        <mxCell id="-loRydjfzgZqf3nSCmC6-36" value="" style="edgeStyle=entityRelationEdgeStyle;fontSize=12;html=1;endArrow=ERzeroToMany;startArrow=ERmandOne;rounded=0;exitX=0.399;exitY=1.014;exitDx=0;exitDy=0;exitPerimeter=0;entryX=0.453;entryY=0.003;entryDx=0;entryDy=0;entryPerimeter=0;" parent="1" source="-loRydjfzgZqf3nSCmC6-10" target="-loRydjfzgZqf3nSCmC6-13" edge="1">
          <mxGeometry width="100" height="100" relative="1" as="geometry">
            <mxPoint x="330" y="155" as="sourcePoint" />
            <mxPoint x="440" y="220" as="targetPoint" />
          </mxGeometry>
        </mxCell>
        <mxCell id="-loRydjfzgZqf3nSCmC6-37" value="" style="edgeStyle=entityRelationEdgeStyle;fontSize=12;html=1;endArrow=ERzeroToMany;startArrow=ERmandOne;rounded=0;entryX=1;entryY=0.25;entryDx=0;entryDy=0;exitX=0.313;exitY=1.014;exitDx=0;exitDy=0;exitPerimeter=0;" parent="1" source="-loRydjfzgZqf3nSCmC6-27" target="-loRydjfzgZqf3nSCmC6-14" edge="1">
          <mxGeometry width="100" height="100" relative="1" as="geometry">
            <mxPoint x="760" y="170" as="sourcePoint" />
            <mxPoint x="660" y="270" as="targetPoint" />
          </mxGeometry>
        </mxCell>
        <mxCell id="-loRydjfzgZqf3nSCmC6-39" value="" style="edgeStyle=entityRelationEdgeStyle;fontSize=12;html=1;endArrow=ERzeroToMany;startArrow=ERmandOne;rounded=0;exitX=0;exitY=0.25;exitDx=0;exitDy=0;entryX=1;entryY=0.25;entryDx=0;entryDy=0;" parent="1" source="-loRydjfzgZqf3nSCmC6-20" target="-loRydjfzgZqf3nSCmC6-16" edge="1">
          <mxGeometry width="100" height="100" relative="1" as="geometry">
            <mxPoint x="530" y="500" as="sourcePoint" />
            <mxPoint x="430" y="600" as="targetPoint" />
          </mxGeometry>
        </mxCell>
        <mxCell id="-loRydjfzgZqf3nSCmC6-40" value="" style="edgeStyle=entityRelationEdgeStyle;fontSize=12;html=1;endArrow=ERzeroToMany;startArrow=ERmandOne;rounded=0;exitX=0;exitY=0.5;exitDx=0;exitDy=0;entryX=1;entryY=0.75;entryDx=0;entryDy=0;" parent="1" source="-loRydjfzgZqf3nSCmC6-22" target="-loRydjfzgZqf3nSCmC6-15" edge="1">
          <mxGeometry width="100" height="100" relative="1" as="geometry">
            <mxPoint x="500" y="627.5" as="sourcePoint" />
            <mxPoint x="380" y="612.5" as="targetPoint" />
          </mxGeometry>
        </mxCell>
        <mxCell id="-loRydjfzgZqf3nSCmC6-41" value="" style="edgeStyle=entityRelationEdgeStyle;fontSize=12;html=1;endArrow=ERoneToMany;startArrow=ERmandOne;rounded=0;exitX=0;exitY=0.1;exitDx=0;exitDy=0;entryX=0.996;entryY=0.094;entryDx=0;entryDy=0;entryPerimeter=0;exitPerimeter=0;" parent="1" source="-loRydjfzgZqf3nSCmC6-24" target="-loRydjfzgZqf3nSCmC6-3" edge="1">
          <mxGeometry width="100" height="100" relative="1" as="geometry">
            <mxPoint x="90" y="460" as="sourcePoint" />
            <mxPoint x="190" y="360" as="targetPoint" />
          </mxGeometry>
        </mxCell>
        <mxCell id="-loRydjfzgZqf3nSCmC6-42" value="" style="edgeStyle=entityRelationEdgeStyle;fontSize=12;html=1;endArrow=ERoneToMany;startArrow=ERmandOne;rounded=0;exitX=1;exitY=0.25;exitDx=0;exitDy=0;entryX=0;entryY=0;entryDx=0;entryDy=0;" parent="1" source="-loRydjfzgZqf3nSCmC6-24" target="-loRydjfzgZqf3nSCmC6-14" edge="1">
          <mxGeometry width="100" height="100" relative="1" as="geometry">
            <mxPoint x="180" y="500" as="sourcePoint" />
            <mxPoint x="280" y="400" as="targetPoint" />
          </mxGeometry>
        </mxCell>
        <mxCell id="-loRydjfzgZqf3nSCmC6-43" value="" style="edgeStyle=entityRelationEdgeStyle;fontSize=12;html=1;endArrow=ERmandOne;startArrow=ERmandOne;rounded=0;exitX=0.446;exitY=-0.003;exitDx=0;exitDy=0;exitPerimeter=0;" parent="1" source="-loRydjfzgZqf3nSCmC6-15" edge="1">
          <mxGeometry width="100" height="100" relative="1" as="geometry">
            <mxPoint x="320" y="400" as="sourcePoint" />
            <mxPoint x="330" y="340" as="targetPoint" />
          </mxGeometry>
        </mxCell>
        <mxCell id="VN9F0jGpOZhFaF8UQofA-2" value="" style="edgeStyle=entityRelationEdgeStyle;fontSize=12;html=1;endArrow=ERzeroToOne;startArrow=ERmandOne;rounded=0;exitX=0;exitY=0.5;exitDx=0;exitDy=0;entryX=1;entryY=0.75;entryDx=0;entryDy=0;" edge="1" parent="1" source="-loRydjfzgZqf3nSCmC6-18" target="-loRydjfzgZqf3nSCmC6-13">
          <mxGeometry width="100" height="100" relative="1" as="geometry">
            <mxPoint x="760" y="410" as="sourcePoint" />
            <mxPoint x="660" y="510" as="targetPoint" />
          </mxGeometry>
        </mxCell>
      </root>
    </mxGraphModel>
  </diagram>
</mxfile>
